<svg xmlns="http://www.w3.org/2000/svg" viewBox="0 0 400 300" width="406" height="306" class="illustration"><g id="_41_shopping_outline" data-name="#41_shopping_outline"><circle cx="263.41" cy="182.16" r="19.07" fill="#70cc40"></circle><path d="M263.41,202.23a20.08,20.08,0,1,1,20.08-20.07A20.1,20.1,0,0,1,263.41,202.23Zm0-38.15a18.08,18.08,0,1,0,18.08,18.08A18.1,18.1,0,0,0,263.41,164.08Z" fill="#093f68"></path><rect x="205.9" y="157.23" width="44.29" height="55.9" fill="#ffbc0e"></rect><path d="M250.19,214.13H205.9a1,1,0,0,1-1-1v-55.9a1,1,0,0,1,1-1h44.29a1,1,0,0,1,1,1v55.9A1,1,0,0,1,250.19,214.13Zm-43.29-2h42.29v-53.9H206.9Z" fill="#093f68"></path><path d="M270.23,227H211.32a8.59,8.59,0,0,1-8.41-6.9l-11.72-52.7a6.14,6.14,0,0,0-6-4.95H172.87a1,1,0,0,1,0-2h12.31a8.15,8.15,0,0,1,8,6.54l11.71,52.7a6.6,6.6,0,0,0,6.46,5.31h58.91a1,1,0,0,1,0,2Z" fill="#093f68"></path><circle cx="217.23" cy="231.87" r="5.91" fill="#fff"></circle><path d="M217.23,238.78a6.92,6.92,0,1,1,6.92-6.91A6.92,6.92,0,0,1,217.23,238.78Zm0-11.83a4.92,4.92,0,1,0,4.92,4.92A4.92,4.92,0,0,0,217.23,227Z" fill="#093f68"></path><circle cx="269.74" cy="231.87" r="5.91" fill="#fff"></circle><path d="M269.74,238.78a6.92,6.92,0,1,1,6.91-6.91A6.93,6.93,0,0,1,269.74,238.78Zm0-11.83a4.92,4.92,0,1,0,4.91,4.92A4.93,4.93,0,0,0,269.74,227Z" fill="#093f68"></path><path d="M226.28,214.13h-21.2c-2.42,0-2.79,0-2.79-1a1,1,0,0,1,1-1h61.37a13.15,13.15,0,0,0,12.85-10.49.26.26,0,0,1,0-.11L287,172.74H193.72a1,1,0,0,1,0-2h94.67a1,1,0,0,1,.81.42,1,1,0,0,1,.14.9l-9.87,30a15.15,15.15,0,0,1-14.79,12Z" fill="#093f68"></path><rect x="221.21" y="191.44" width="45.19" height="21.38" transform="translate(487.61 404.25) rotate(-180)" fill="#f56132"></rect><path d="M266.4,213.82H221.21a1,1,0,0,1-1-1V191.44a1,1,0,0,1,1-1H266.4a1,1,0,0,1,1,1v21.38A1,1,0,0,1,266.4,213.82Zm-44.19-2H265.4V192.44H222.21Z" fill="#093f68"></path><path d="M176.79,154s8.48,2.84,9.46,4.55,1.78,4.76,1.15,6-1.81,2.47-3,1.95a38.72,38.72,0,0,0-4-1.89c-1.57-.5-7.54-3.05-7.54-3.05Z" fill="#ffc9b0"></path><path d="M184.92,167.59a2.45,2.45,0,0,1-.95-.2,14.82,14.82,0,0,1-1.54-.78,13.11,13.11,0,0,0-2.33-1.07c-1.59-.51-7.38-3-7.63-3.09a1,1,0,0,1-.55-.58,1,1,0,0,1,.06-.8l3.92-7.51a1,1,0,0,1,1.2-.49c2.08.7,8.94,3.11,10,5,.88,1.53,2.11,5.13,1.16,6.92S186.15,167.59,184.92,167.59ZM174.25,161c1.76.75,5.34,2.24,6.46,2.6a14.9,14.9,0,0,1,2.68,1.23c.47.26.92.5,1.36.69s1.29-.61,1.77-1.5c.35-.67-.14-3.25-1.14-5-.45-.78-4.4-2.53-8.1-3.82Z" fill="#093f68"></path><path d="M134.5,174.6A19.28,19.28,0,0,0,151.27,169l-3.74-13.32L130,158.43S123.94,173,134.5,174.6Z" fill="#093f68"></path><path d="M126,225.45l-8-10c16-11.73,25.76-20.75,27.1-24.88,1.08-3.29-9.23-17.1-13.21-31l20.9-1.75c2,7,6,31,3,40.25C152.91,206.81,132.79,220.13,126,225.45Z" fill="#093f68"></path><path d="M126,226.45a1,1,0,0,1-.78-.38l-8-10a1,1,0,0,1-.21-.76,1,1,0,0,1,.4-.67c15.45-11.31,25.45-20.43,26.74-24.39.38-1.17-2-5.68-4.27-10-3-5.8-6.85-13-8.95-20.37a1,1,0,0,1,.88-1.27l20.89-1.75a1,1,0,0,1,1.05.72c1.78,6.2,6.19,31,3,40.84-2.46,7.53-16.34,17.7-25.52,24.43-1.85,1.35-3.45,2.52-4.64,3.45A1,1,0,0,1,126,226.45Zm-6.55-10.84,6.72,8.45c1.09-.83,2.41-1.8,3.89-2.88,8.44-6.18,22.55-16.53,24.81-23.44,2.81-8.63-.82-31.26-2.81-38.87l-18.84,1.57c2.1,6.75,5.6,13.41,8.45,18.82,3.41,6.5,5,9.7,4.4,11.59C144.11,196.71,128.9,208.62,119.4,215.61Z" fill="#093f68"></path><polygon points="146.84 230.29 123.18 162.4 134.04 155.25 159.43 227.54 146.84 230.29" fill="#093f68"></polygon><path d="M146.84,231.29a1,1,0,0,1-.94-.67l-23.67-67.89a1,1,0,0,1,.4-1.17l10.86-7.15a1,1,0,0,1,.87-.11,1,1,0,0,1,.62.62l25.39,72.28a1,1,0,0,1-.07.82,1,1,0,0,1-.66.49l-12.59,2.76A.75.75,0,0,1,146.84,231.29ZM124.38,162.8l23.11,66.33,10.62-2.33-24.59-70Z" fill="#093f68"></path><path d="M154.06,128.3c-2.77-5-3.92-7.07-8.55-7.07H132.84a9.65,9.65,0,0,0-9.66,9.66V162.4h32V151.89c6,7.13,13.82,13.48,23.55,14.87L180.53,154C168,152.21,158.65,136.63,154.06,128.3Z" fill="#68e1fd"></path><path d="M178.71,167.76h-.14c-8-1.14-15.49-5.57-22.41-13.18v7.83a1,1,0,0,1-1,1h-32a1,1,0,0,1-1-1V130.89a10.67,10.67,0,0,1,10.65-10.66h12.68c5.18,0,6.57,2.49,9.35,7.44l.07.14h0c3.18,5.78,12.85,23.37,25.73,25.2a1,1,0,0,1,.66.39,1,1,0,0,1,.19.75L179.7,166.9a1,1,0,0,1-1,.86ZM155.16,150.9a1,1,0,0,1,.77.35c6.78,8.13,14.16,13,21.93,14.36l1.54-10.78c-13.35-2.68-23-20.19-26.21-26.05l-.08-.13c-2.69-4.8-3.59-6.42-7.6-6.42H132.83a8.66,8.66,0,0,0-8.65,8.66V161.4h30v-9.5a1,1,0,0,1,.66-.94A.82.82,0,0,1,155.16,150.9Z" fill="#093f68"></path><path d="M151.85,151.36a1,1,0,0,1-1-1v-15.5a1,1,0,0,1,2,0v15.5A1,1,0,0,1,151.85,151.36Z" fill="#093f68"></path><path d="M135.9,64.85a14.94,14.94,0,0,1,7.36.17c2.73.59,5.48,1.41,8.26,1.18s5.69-1.82,6.46-4.51c2.77,3.22,3.41,7.76,3.31,12a15.67,15.67,0,0,1-.41,3.68,19.89,19.89,0,0,1-1.24,3.21c-.7,1.56-1.55,3-1.54,4.67a35,35,0,0,1-.69,5.94c-.77,4.38-1.83,8.7-2.74,13.06H117.23s-1.07-9.11-1.07-16.72,3.38-17.77,12.7-15.69a7.27,7.27,0,0,1,1.61-2.91A12.29,12.29,0,0,1,135,65.16,7.08,7.08,0,0,1,135.9,64.85Z" fill="#725858"></path><path d="M154.67,105.26H117.23a1,1,0,0,1-1-.89c0-.09-1.08-9.25-1.08-16.83,0-5.08,1.47-11.68,5.58-15a9.23,9.23,0,0,1,7.44-1.87,10.09,10.09,0,0,1,1.51-2.39,13.56,13.56,0,0,1,4.93-4.07,9.12,9.12,0,0,1,1-.35h0a16,16,0,0,1,7.85.15l1.43.33a21.73,21.73,0,0,0,6.54.84c2.22-.19,4.91-1.45,5.57-3.79a1,1,0,0,1,1.72-.38c2.52,2.92,3.69,7.07,3.56,12.69a17.12,17.12,0,0,1-.44,3.89A21.3,21.3,0,0,1,160.56,81l-.4.84a8,8,0,0,0-1.06,3.42,34.42,34.42,0,0,1-.68,5.95l0,.16c-.5,2.89-1.14,5.8-1.77,8.61-.33,1.49-.66,3-1,4.48A1,1,0,0,1,154.67,105.26Zm-36.54-2h35.73c.26-1.24.54-2.48.81-3.72.62-2.78,1.26-5.66,1.75-8.51l0-.16a33.5,33.5,0,0,0,.65-5.61A9.64,9.64,0,0,1,158.36,81c.12-.26.25-.52.37-.79a19,19,0,0,0,1.18-3.05,15.6,15.6,0,0,0,.39-3.45c.09-4.29-.61-7.59-2.13-10a8.78,8.78,0,0,1-6.56,3.56,23.19,23.19,0,0,1-7.16-.89l-1.4-.31a14.39,14.39,0,0,0-6.86-.2h0a7.08,7.08,0,0,0-.77.28,11.23,11.23,0,0,0-4.16,3.49,6.39,6.39,0,0,0-1.42,2.49,1,1,0,0,1-.43.63,1,1,0,0,1-.76.13A7.52,7.52,0,0,0,122,74.13c-3.56,2.85-4.83,9-4.83,13.41C117.16,93.64,117.86,100.79,118.13,103.26ZM135.9,64.85h0Z" fill="#093f68"></path><path d="M137,119.6h6.94a0,0,0,0,1,0,0v4a2.95,2.95,0,0,1-2.95,2.95h-1a2.95,2.95,0,0,1-2.95-2.95v-4A0,0,0,0,1,137,119.6Z" fill="#ffc9b0"></path><path d="M141,127.54h-1a4,4,0,0,1-3.94-4v-4a1,1,0,0,1,1-1h6.94a1,1,0,0,1,1,1v4A4,4,0,0,1,141,127.54Zm-3-6.94v3a2,2,0,0,0,1.94,2h1a2,2,0,0,0,2-2v-3Z" fill="#093f68"></path><ellipse cx="158.43" cy="102.28" rx="5.2" ry="5.81" fill="#ffc9b0"></ellipse><path d="M158.43,109.1c-3.42,0-6.2-3.06-6.2-6.82s2.78-6.81,6.2-6.81,6.21,3.06,6.21,6.81S161.85,109.1,158.43,109.1Zm0-11.63c-2.31,0-4.2,2.16-4.2,4.81s1.89,4.82,4.2,4.82,4.21-2.16,4.21-4.82S160.75,97.47,158.43,97.47Z" fill="#093f68"></path><path d="M140.24,121.23c-11.41,0-21.63-14.09-21.63-25.33l2.71,1-.09-8s14.3-3.77,12.42-10.42c0,0,4.2,5,10.22,5,11.09,0,15.43-3,15.43-3v20.32C159.3,112.12,151.66,121.23,140.24,121.23Z" fill="#ffc9b0"></path><path d="M140.24,122.23c-12,0-22.63-14.72-22.63-26.33a1,1,0,0,1,.43-.82A1,1,0,0,1,119,95l1.34.51L120.23,89a1,1,0,0,1,.74-1c.09,0,9-2.43,11.35-6.49a3.38,3.38,0,0,0,.37-2.7,1,1,0,0,1,1.72-.92s4,4.62,9.44,4.62h0c10.56,0,14.83-2.77,14.87-2.8a1,1,0,0,1,1.56.83v20.32C160.3,113.25,151.86,122.23,140.24,122.23ZM119.66,97.37c.82,12.26,11.83,22.86,20.58,22.86,10.46,0,18.06-8.14,18.06-19.35V82.19c-2.18.92-6.73,2.32-14.42,2.34h0a14.63,14.63,0,0,1-9.16-3.6,6,6,0,0,1-.64,1.59c-2.32,4.06-9.45,6.5-11.81,7.21l.08,7.19a1,1,0,0,1-.42.83,1,1,0,0,1-.93.12Z" fill="#093f68"></path><ellipse cx="135.1" cy="98.34" rx="1.88" ry="1.88" fill="#093f68"></ellipse><circle cx="153.23" cy="98.34" r="1.88" fill="#093f68"></circle><path d="M145.11,103.93a12.08,12.08,0,0,1-1.89-.16,1,1,0,1,1,.34-2,9.23,9.23,0,0,0,2.3.09A15.57,15.57,0,0,0,144.33,98a1,1,0,0,1,1.78-.92c.85,1.64,2.19,4.58,1.6,5.9a1.4,1.4,0,0,1-1,.81A6.92,6.92,0,0,1,145.11,103.93Z" fill="#093f68"></path><path d="M128.12,95.34a2,2,0,0,1-.38-4l8.82-1.71a2,2,0,1,1,.76,3.93l-8.82,1.7A1.58,1.58,0,0,1,128.12,95.34Z" fill="#093f68"></path><path d="M155.16,93.66h-.09l-9-.4a2,2,0,1,1,.18-4l9,.4a2,2,0,0,1-.09,4Z" fill="#093f68"></path><path d="M122.7,97.34s-5-3.44-7.65,1-.09,12,8.13,9.78" fill="#ffc9b0"></path><path d="M120.43,109.49a7.07,7.07,0,0,1-5.89-2.74,8.15,8.15,0,0,1-.34-8.94,5.26,5.26,0,0,1,3.47-2.62c2.77-.6,5.48,1.25,5.6,1.33a1,1,0,1,1-1.14,1.64h0a6.16,6.16,0,0,0-4-1,3.35,3.35,0,0,0-2.17,1.71,6.2,6.2,0,0,0,.23,6.7c1.37,1.83,3.78,2.39,6.78,1.59a1,1,0,0,1,.51,1.93A11.59,11.59,0,0,1,120.43,109.49Z" fill="#093f68"></path><path d="M142.85,112.68a9.4,9.4,0,0,1-2.08-.23c-2.67-.63-4.87-2.45-6.54-5.44a1,1,0,1,1,1.74-1c1.39,2.46,3.15,4,5.24,4.46,3.55.83,7-1.47,7-1.49a1,1,0,1,1,1.13,1.65A12.74,12.74,0,0,1,142.85,112.68Z" fill="#093f68"></path><path d="M146.84,230.29l2.67,8,20.93-6.88a.71.71,0,0,0-.05-1.36L158.19,227Z" fill="#68e1fd"></path><path d="M149.51,239.31a1,1,0,0,1-.95-.68l-2.67-8a1,1,0,0,1,.67-1.28l11.36-3.3a.92.92,0,0,1,.52,0l12.2,3.08a1.71,1.71,0,0,1,.11,3.28l-20.93,6.88A.84.84,0,0,1,149.51,239.31ZM148.12,231l2,6.09,19-6.26-11-2.77Z" fill="#093f68"></path><path d="M118,215.42l-6.36,5.78,15.37,16a.52.52,0,0,0,.89-.41l-1.3-13.1Z" fill="#68e1fd"></path><path d="M127.35,238.4a1.51,1.51,0,0,1-1.09-.47l-15.37-16a1,1,0,0,1,0-1.43l6.36-5.78a1,1,0,0,1,1.36,0l8.61,8.31a1,1,0,0,1,.3.62l1.29,13.1a1.51,1.51,0,0,1-.87,1.53A1.64,1.64,0,0,1,127.35,238.4ZM113,221.25l13.69,14.28-1.12-11.34-7.66-7.4Z" fill="#093f68"></path><path d="M173.69,157.8s8.95.12,10.4,1.45,3.15,4,2.9,5.32-1,2.91-2.3,2.79a36.71,36.71,0,0,0-4.34-.6c-1.64,0-8.11-.61-8.11-.61Z" fill="#ffc9b0"></path><path d="M184.83,168.36h-.23a15.84,15.84,0,0,1-1.7-.27,12.88,12.88,0,0,0-2.55-.32c-1.67,0-7.94-.59-8.2-.62a1,1,0,0,1-.89-1.17l1.45-8.34a1,1,0,0,1,1-.83c2.18,0,9.45.24,11.06,1.72,1.3,1.19,3.57,4.24,3.21,6.23C187.57,167,186.35,168.36,184.83,168.36Zm-11.42-3.11c1.9.17,5.76.51,6.94.51a14.66,14.66,0,0,1,2.93.36c.53.1,1,.2,1.5.24s1.05-1,1.23-2c.14-.75-1.12-3.06-2.59-4.41-.67-.6-5-1.07-8.89-1.17Z" fill="#093f68"></path><path d="M138.29,131.67c3.43,6,14,20.28,38.57,24.57L175.76,169s-.74,0-1.11-.09c-28.49-5-41.86-21.43-47-30" fill="#68e1fd"></path><path d="M175.76,170h0c-.08,0-.82,0-1.24-.11-28.55-5-42.15-21.24-47.71-30.49a1,1,0,1,1,1.71-1c5.39,9,18.57,24.71,46.34,29.55h0l.94-10.9c-24.41-4.55-34.95-18.89-38.37-24.9a1,1,0,0,1,.37-1.36,1,1,0,0,1,1.37.38C142.48,137,152.82,151,177,155.26a1,1,0,0,1,.83,1.07l-1.1,12.79A1,1,0,0,1,175.76,170Z" fill="#093f68"></path><path d="M151.85,204.38a.5.5,0,0,1-.47-.34l-13.56-38.61a.5.5,0,0,1,.31-.63.49.49,0,0,1,.63.3l13.56,38.61a.49.49,0,0,1-.3.64A.51.51,0,0,1,151.85,204.38Z" fill="#fff"></path><rect x="216.76" y="134.59" width="38.51" height="22.64" fill="#68e1fd"></rect><path d="M255.27,158.23H216.76a1,1,0,0,1-1-1V134.59a1,1,0,0,1,1-1h38.51a1,1,0,0,1,1,1v22.64A1,1,0,0,1,255.27,158.23Zm-37.51-2h36.51V135.59H217.76Z" fill="#093f68"></path><rect x="212.55" y="122.55" width="26.66" height="12.05" fill="#fff"></rect><path d="M239.21,135.59H212.55a1,1,0,0,1-1-1v-12a1,1,0,0,1,1-1h26.66a1,1,0,0,1,1,1v12A1,1,0,0,1,239.21,135.59Zm-25.66-2h24.66v-10H213.55Z" fill="#093f68"></path><path d="M223.29,164.69H212.55a1,1,0,0,1,0-2h10.74a1,1,0,1,1,0,2Z" fill="#093f68"></path><path d="M242.08,141.67c-3.18,0-3.32-.14-3.58-.4a1,1,0,0,1,0-1.41,1,1,0,0,1,1-.25c.83.09,6.11,0,9.68,0a1,1,0,0,1,0,2C245.89,141.64,243.63,141.67,242.08,141.67Z" fill="#093f68"></path><path d="M232.68,204.84a1,1,0,0,1-1-1v-11.4a1,1,0,0,1,2,0v11.4A1,1,0,0,1,232.68,204.84Z" fill="#093f68"></path></g></svg>