<svg id="Layer_1" data-name="Layer 1" xmlns="http://www.w3.org/2000/svg" xmlns:xlink="http://www.w3.org/1999/xlink" viewBox="0 0 998.7 926.51" width="406" height="306" class="illustration"><defs><linearGradient id="linear-gradient" x1="441.62" y1="387.54" x2="900.64" y2="1267.33" gradientUnits="userSpaceOnUse"><stop offset="0.01"></stop><stop offset="0.08" stop-opacity="0.69"></stop><stop offset="0.21" stop-opacity="0.32"></stop><stop offset="1" stop-opacity="0"></stop></linearGradient><linearGradient id="linear-gradient-2" x1="514.91" y1="-27.08" x2="522.19" y2="967.48" xlink:href="#linear-gradient"></linearGradient><linearGradient id="linear-gradient-3" x1="214.12" y1="106.48" x2="1946.39" y2="2122.91" xlink:href="#linear-gradient"></linearGradient><linearGradient id="linear-gradient-4" x1="395.7" y1="389.67" x2="701.72" y2="968.92" xlink:href="#linear-gradient"></linearGradient><linearGradient id="linear-gradient-5" x1="456.74" y1="357.43" x2="762.76" y2="936.67" xlink:href="#linear-gradient"></linearGradient><linearGradient id="linear-gradient-6" x1="417.41" y1="219.53" x2="849.12" y2="452.69" xlink:href="#linear-gradient"></linearGradient><linearGradient id="linear-gradient-7" x1="580.71" y1="312.56" x2="1012.41" y2="545.72" xlink:href="#linear-gradient"></linearGradient><linearGradient id="linear-gradient-8" x1="163.37" y1="266.12" x2="595.07" y2="499.28" xlink:href="#linear-gradient"></linearGradient><linearGradient id="linear-gradient-9" x1="269.93" y1="315.76" x2="701.63" y2="548.91" xlink:href="#linear-gradient"></linearGradient></defs><title>5. </title><path d="M268.91,963c75.85,34.09,167.58,30.48,240.51-9.46,22.64-12.41,43.63-28.11,67.73-37.38,58.41-22.45,123.84-3.73,186.28-7.79,105.44-6.85,198-80.6,251.52-171.7s73.67-197.78,85.28-302.8c13-117.42,8.1-255.17-85.18-327.66C940.48,48.24,835.35,54,742.76,72.57S555,119.68,463.13,98C430,90.21,398,75.94,364,74.27c-60.64-3-116.6,35-155.56,81.6-66.85,79.92-96.1,185.93-100.84,290-4.75,104.44,13.74,209.44,16.52,313.35C126.54,850.25,185.26,925.36,268.91,963Z" transform="translate(-106.82 -59.7)" fill="#68e1fd" opacity="0.18" style="isolation: isolate;"></path><rect x="254.32" y="164.26" width="525.79" height="574.55" rx="59.7" fill="#fff"></rect><path d="M435.45,798.51l74.68-68.28s102.92,73.49,201.28,8.06,101.61-193.75,56.73-243-44.33-14.21-44.33-14.21,70,193.45-82,212.86-166.73-23.84-166.73-23.84L382.63,798.51Z" transform="translate(-106.82 -59.7)" fill="url(#linear-gradient)"></path><polygon points="254.32 342.05 340.18 392.66 484.92 293.48 644.97 400.34 780.11 275.53 780.11 234.02 642.85 352.74 486.21 263.88 338.14 343.96 254.32 314.98 254.32 342.05" fill="url(#linear-gradient-2)"></polygon><polygon points="136.84 387.37 127.19 375.23 231.79 292.08 338.14 343.96 485.84 245.49 650.31 345.72 816.55 184.52 827.34 195.65 652.49 365.2 486.21 263.88 339.33 361.8 233.79 310.31 136.84 387.37" fill="#68e1fd"></polygon><path d="M317.85,807.73a25.4,25.4,0,0,0,0,35.94h0a25.4,25.4,0,0,0,35.94,0L512.85,691.21a25.42,25.42,0,0,0,0-35.94h0a25.42,25.42,0,0,0-35.94,0Z" transform="translate(-106.82 -59.7)" fill="#68e1fd"></path><path d="M430.73,562.85A175.44,175.44,0,1,0,606.17,387.4,175.44,175.44,0,0,0,430.73,562.85Zm44.32,0A131.12,131.12,0,1,1,606.17,694,131.11,131.11,0,0,1,475.05,562.85Z" transform="translate(-106.82 -59.7)" fill="#68e1fd"></path><path d="M430.73,562.85A175.44,175.44,0,1,0,606.17,387.4,175.44,175.44,0,0,0,430.73,562.85Zm44.32,0A131.12,131.12,0,1,1,606.17,694,131.11,131.11,0,0,1,475.05,562.85Z" transform="translate(-106.82 -59.7)" fill="url(#linear-gradient-3)"></path><path d="M417.25,550.12A175.45,175.45,0,1,0,592.69,374.68,175.44,175.44,0,0,0,417.25,550.12Zm44.33,0A131.12,131.12,0,1,1,592.69,681.23,131.11,131.11,0,0,1,461.58,550.12Z" transform="translate(-106.82 -59.7)" fill="#68e1fd"></path><polygon points="827.63 275.53 812.16 274.46 817.72 193.93 728.16 208.37 725.69 193.06 834.53 175.52 827.63 275.53" fill="#68e1fd"></polygon><rect x="413.7" y="519.22" width="28.87" height="40.22" fill="#68e1fd"></rect><rect x="449.31" y="477.5" width="28.87" height="81.94" fill="#68e1fd"></rect><rect x="484.92" y="509.55" width="28.87" height="49.89" fill="#68e1fd"></rect><rect x="520.52" y="451.54" width="28.87" height="107.9" fill="#68e1fd"></rect><rect x="449.31" y="477.5" width="28.87" height="81.94" fill="url(#linear-gradient-4)"></rect><rect x="520.52" y="451.54" width="28.87" height="107.9" fill="url(#linear-gradient-5)"></rect><rect x="556.13" y="421.4" width="28.87" height="138.04" fill="#68e1fd"></rect><circle cx="485.88" cy="256.51" r="22.49" fill="#68e1fd"></circle><circle cx="485.88" cy="256.51" r="22.49" fill="url(#linear-gradient-6)"></circle><circle cx="649.17" cy="349.54" r="22.49" fill="#68e1fd"></circle><circle cx="649.17" cy="349.54" r="22.49" fill="url(#linear-gradient-7)"></circle><circle cx="231.83" cy="303.1" r="22.49" fill="#68e1fd"></circle><circle cx="231.83" cy="303.1" r="22.49" fill="url(#linear-gradient-8)"></circle><circle cx="338.39" cy="352.74" r="22.49" fill="#68e1fd"></circle><circle cx="338.39" cy="352.74" r="22.49" fill="url(#linear-gradient-9)"></circle></svg>